<svg xmlns="http://www.w3.org/2000/svg" viewBox="0 0 124.27 182.14">
  <defs>
    <style>
      .cls-1 {
        fill: #ffffff;
      }
    </style>
  </defs>
  <title>logo sayur</title>
  <g id="Layer_2" data-name="Layer 2">
    <g id="Layer_1-2" data-name="Layer 1">
      <path class="cls-1"
        d="M61.86,0c6,7.63,11.9,15,17.58,22.5A306.19,306.19,0,0,1,107,65.39c6,11.52,11.31,23.35,14.67,36A66.69,66.69,0,0,1,124,124.8c-2.58,27.83-22.7,50.3-48.63,55.89-35.29,7.6-67-15.57-74.05-48.38-2.23-10.42-1.55-20.69,1.11-30.92,3.7-14.25,9.76-27.5,17-40.22q4-7,8-13.91a197.25,197.25,0,0,1,14-20.32C48,18.41,54.42,9.81,60.86,1.25,61.1.94,61.35.64,61.86,0ZM31.63,73A171,171,0,0,0,20.35,98.2a74.06,74.06,0,0,0-4.22,22.33,41.42,41.42,0,0,0,5.2,20.93,50.66,50.66,0,0,0,10.26,12.9c.18-.14.32-.22.43-.33Q51.15,135.81,46,109.9a99,99,0,0,0-7.15-22C36.55,83,34.11,78.16,31.63,73ZM47,162.93A34.84,34.84,0,0,0,61.65,166a47.55,47.55,0,0,0,28.73-9.84c6.58-4.92,11.61-11.06,14.24-19,.7-2.09,1.09-4.29,1.68-6.69-2.33-.33-4.32-.73-6.33-.87-7.86-.51-15.2,1.45-22.19,4.91A73.52,73.52,0,0,0,53.85,154C51.49,156.81,49.34,159.84,47,162.93Zm4.47-87.35c.21-.27.3-.35.36-.45Q62,58.25,72.11,41.37A1.13,1.13,0,0,0,72,39.9Q67.5,33.8,63.07,27.68l-1.18-1.61c-.36.5-.65.88-.91,1.26l-6.37,9.3q-6,8.81-12,17.62a3.66,3.66,0,0,0-.16,4.36c.79,1.29,1.42,2.68,2.13,4ZM108.05,114l-7.46-25c-15.8,5.83-26,17.24-33,32A67.93,67.93,0,0,1,108.05,114ZM92.42,72.88,82.74,56c-9.13,10.76-14.56,23.12-18,36.8Z" />
    </g>
  </g>
</svg>